<svg width="124" height="125" viewBox="0 0 124 125" fill="none" xmlns="http://www.w3.org/2000/svg">
<rect x="33.5192" y="9.91162" width="37.8746" height="37.8746" rx="18.9373" transform="rotate(10.0488 33.5192 9.91162)" fill="#34CD33"/>
<path d="M49.7619 8.25236L49.3903 8.08984L14.4578 89.9486L14.8294 90.1111L49.7619 8.25236Z" fill="#3F3F3F"/>
<path d="M61.6838 13.4655L61.3121 13.303L26.3797 95.1618L26.7513 95.3243L61.6838 13.4655Z" fill="#3F3F3F"/>
<path d="M73.5998 18.6772L73.2281 18.5146L38.2957 100.373L38.6673 100.536L73.5998 18.6772Z" fill="#3F3F3F"/>
<path d="M85.5216 23.8903L85.15 23.7278L50.2176 105.587L50.5892 105.749L85.5216 23.8903Z" fill="#3F3F3F"/>
<path d="M97.4435 29.1054L97.0719 28.9429L62.1394 110.802L62.5111 110.964L97.4435 29.1054Z" fill="#3F3F3F"/>
<path d="M109.367 34.3183L108.996 34.1558L74.0633 116.015L74.4349 116.177L109.367 34.3183Z" fill="#3F3F3F"/>
<path d="M115.294 49.4586L34.4313 14.0957L34.2707 14.4719L115.133 49.8348L115.294 49.4586Z" fill="#3F3F3F"/>
<path d="M110.143 61.5267L29.2809 26.1638L29.1203 26.54L109.983 61.9029L110.143 61.5267Z" fill="#3F3F3F"/>
<path d="M104.997 73.5904L24.1344 38.2275L23.9739 38.6037L104.836 73.9666L104.997 73.5904Z" fill="#3F3F3F"/>
<path d="M99.8465 85.6597L18.984 50.2969L18.8235 50.6731L99.6859 86.0359L99.8465 85.6597Z" fill="#3F3F3F"/>
<path d="M94.6941 97.7278L13.8317 62.365L13.6711 62.7412L94.5336 98.104L94.6941 97.7278Z" fill="#3F3F3F"/>
<path d="M89.5457 109.798L8.68323 74.4353L8.52269 74.8115L89.3851 110.174L89.5457 109.798Z" fill="#3F3F3F"/>
<rect x="41.8024" y="26.5999" width="37.8746" height="37.8746" rx="18.9373" transform="rotate(10.0488 41.8024 26.5999)" fill="black"/>
</svg>
