<svg width="74" height="68" viewBox="0 0 74 68" fill="none" xmlns="http://www.w3.org/2000/svg">
<path fill-rule="evenodd" clip-rule="evenodd" d="M4.90486 36.5995C6.70086 42.9995 7.60686 49.7001 8.43686 56.2001C8.61086 57.6001 7.63987 58.8999 6.27187 58.9999C4.90287 59.1999 3.65087 58.1993 3.47687 56.8993C2.67787 50.5993 1.82287 44.0999 0.093873 37.9999C-0.281127 36.6999 0.490863 35.2993 1.81886 34.8993C3.14586 34.4993 4.52886 35.2995 4.90486 36.5995Z" fill="#34CD33"/>
<path fill-rule="evenodd" clip-rule="evenodd" d="M30.3701 25.2003C40.8811 35.5003 50.0392 47.1003 60.8322 57.2003C61.8402 58.1003 61.8942 59.7003 60.9532 60.7003C60.0112 61.7003 58.4272 61.7999 57.4192 60.7999C46.5952 50.6999 37.4072 39.0999 26.8652 28.7999C25.8812 27.7999 25.8672 26.2003 26.8352 25.2003C27.8022 24.3003 29.3861 24.2003 30.3701 25.2003Z" fill="#34CD33"/>
<path fill-rule="evenodd" clip-rule="evenodd" d="M62.7978 5.89992C56.7818 5.59992 50.7658 5.30051 44.7488 5.00051C43.3708 5.00051 42.3068 3.79992 42.3738 2.39992C42.4418 0.999924 43.6148 0.000509739 44.9938 0.000509799C51.0198 0.30051 57.0448 0.599924 63.0698 0.899925C64.4478 0.999925 65.5048 2.20012 65.4298 3.60012C65.3548 4.90012 64.1748 5.99992 62.7978 5.89992Z" fill="#34CD33"/>
</svg>
