<svg width="40" height="40" viewBox="0 0 40 40" fill="none" xmlns="http://www.w3.org/2000/svg">
<path fill-rule="evenodd" clip-rule="evenodd" d="M4.0799 35.1577H2.51953L2.90963 14.9681H3.69015L4.0799 35.1577Z" fill="white"/>
<path fill-rule="evenodd" clip-rule="evenodd" d="M4.49707 37.063V35.3677L20.405 35.7913V36.6393L4.49707 37.063Z" fill="white"/>
<path fill-rule="evenodd" clip-rule="evenodd" d="M3.28489 33.9762L5.65895 36.306L3.28489 38.6364L0.910156 36.306L3.28489 33.9762Z" fill="white"/>
<path d="M40.0008 36.3636C40.0008 35.1923 39.9435 34.0217 39.8291 32.8561L28.8807 33.9306C28.96 34.7392 28.9998 35.5512 28.9998 36.3636H40.0008Z" fill="white"/>
<path d="M39.2259 28.9439C39.0092 27.9178 38.7476 26.9017 38.442 25.8984L27.9185 29.1045C28.1305 29.8004 28.312 30.5053 28.4623 31.217L39.2259 28.9439Z" fill="white"/>
<path d="M36.7456 21.4243C36.3381 20.5334 35.8942 19.6596 35.4152 18.805L25.819 24.1843C26.1513 24.777 26.4591 25.3832 26.7419 26.0011L36.7456 21.4243Z" fill="white"/>
<path d="M33.2868 15.4565C32.7576 14.7175 32.2005 13.9989 31.6168 13.3021L23.1843 20.3672C23.5892 20.8505 23.9756 21.3489 24.3426 21.8615L33.2868 15.4565Z" fill="white"/>
<path d="M28.7077 10.2195C28.1987 9.74026 27.6759 9.27601 27.1398 8.82733L20.0788 17.2633C20.4507 17.5745 20.8133 17.8965 21.1664 18.2289L28.7077 10.2195Z" fill="white"/>
<path d="M23.9297 6.43177C23.4777 6.13222 23.019 5.84295 22.554 5.56417L16.8979 14.9998C17.2205 15.1932 17.5387 15.3938 17.8522 15.6016L23.9297 6.43177Z" fill="white"/>
<path d="M18.3589 3.41048C17.9387 3.22858 17.5152 3.05474 17.0884 2.88904L13.1068 13.1442C13.4028 13.2592 13.6966 13.3798 13.988 13.5059L18.3589 3.41048Z" fill="white"/>
<path d="M13.0341 1.58582C12.7378 1.50965 12.4406 1.43726 12.1425 1.36868L9.67609 12.0897C9.88287 12.1372 10.089 12.1874 10.2945 12.2403L13.0341 1.58582Z" fill="white"/>
<path d="M7.11936 0.582415C6.87621 0.561841 6.63287 0.543746 6.38935 0.528133L5.68545 11.5066C5.85436 11.5174 6.02316 11.53 6.19181 11.5443L7.11936 0.582415Z" fill="white"/>
<path d="M3.68014 0.456909C3.53132 0.458615 3.38251 0.461246 3.23372 0.464802L3.49657 11.4627C3.59978 11.4602 3.703 11.4584 3.80623 11.4572L3.68014 0.456909Z" fill="white"/>
</svg>
