<svg width="37" height="36" viewBox="0 0 37 36" fill="none" xmlns="http://www.w3.org/2000/svg">
<rect x="0.46405" width="36" height="36" rx="18" fill="url(#paint0_linear_7964_19016)"/>
<path fill-rule="evenodd" clip-rule="evenodd" d="M15.7062 12.5234C14.36 12.5234 13.2687 13.6147 13.2687 14.9609V20.9609C13.2687 22.3071 14.36 23.3984 15.7062 23.3984H21.7062C23.0524 23.3984 24.1437 22.3071 24.1437 20.9609V14.9609C24.1437 13.6147 23.0524 12.5234 21.7062 12.5234H15.7062ZM12.1437 14.9609C12.1437 12.9934 13.7387 11.3984 15.7062 11.3984H21.7062C23.6738 11.3984 25.2687 12.9934 25.2687 14.9609V20.9609C25.2687 22.9285 23.6738 24.5234 21.7062 24.5234H15.7062C13.7387 24.5234 12.1437 22.9285 12.1437 20.9609V14.9609ZM18.7062 16.2734C17.7743 16.2734 17.0187 17.029 17.0187 17.9609C17.0187 18.8929 17.7743 19.6484 18.7062 19.6484C19.6382 19.6484 20.3937 18.8929 20.3937 17.9609C20.3937 17.029 19.6382 16.2734 18.7062 16.2734ZM15.8937 17.9609C15.8937 16.4076 17.1529 15.1484 18.7062 15.1484C20.2595 15.1484 21.5187 16.4076 21.5187 17.9609C21.5187 19.5142 20.2595 20.7734 18.7062 20.7734C17.1529 20.7734 15.8937 19.5142 15.8937 17.9609ZM22.6437 14.5859C22.6437 14.2753 22.3919 14.0234 22.0812 14.0234C21.7706 14.0234 21.5187 14.2753 21.5187 14.5859V14.5869C21.5187 14.8976 21.7706 15.1494 22.0812 15.1494C22.3919 15.1494 22.6437 14.8976 22.6437 14.5869V14.5859Z" fill="white"/>
<defs>
<linearGradient id="paint0_linear_7964_19016" x1="18.4641" y1="0" x2="18.4641" y2="36" gradientUnits="userSpaceOnUse">
<stop stop-color="#7538FB"/>
<stop offset="0.541667" stop-color="#EF215F"/>
<stop offset="1" stop-color="#FFAD01"/>
</linearGradient>
</defs>
</svg>
