<svg width="138" height="26" viewBox="0 0 138 26" fill="none" xmlns="http://www.w3.org/2000/svg">
<path d="M3.43714 20.412C2.40844 20.4143 1.45811 19.8628 0.949622 18.9686C0.448469 18.0798 0.478521 16.9871 1.02776 16.1272L6.15041 8.08295C6.68419 7.20277 7.65025 6.67786 8.67917 6.70895C9.70734 6.73359 10.6425 7.31006 11.1265 8.21752C11.6041 9.1205 11.5444 10.2069 10.9724 11.0545L5.85303 19.0988C5.3254 19.921 4.41406 20.4164 3.43714 20.412Z" fill="#F62B54"/>
<path d="M12.224 20.4117C11.1907 20.4117 10.24 19.8592 9.74078 18.9715C9.24074 18.0851 9.2708 16.9952 9.81892 16.1377L14.9318 8.1119C15.4579 7.21908 16.4268 6.68185 17.4627 6.7086C18.5046 6.73139 19.4488 7.3142 19.9264 8.22585C20.4007 9.13751 20.3312 10.2304 19.7419 11.0759L14.6301 19.1017C14.1041 19.9203 13.197 20.4142 12.224 20.4117Z" fill="#FFCC00"/>
<path d="M20.814 20.4799C22.2706 20.4799 23.4513 19.3239 23.4513 17.898C23.4513 16.472 22.2706 15.316 20.814 15.316C19.3575 15.316 18.1768 16.472 18.1768 17.898C18.1768 19.3239 19.3575 20.4799 20.814 20.4799Z" fill="#00CA72"/>
<path d="M135.385 15.4646C136.182 15.4646 136.658 16.0311 136.658 16.9591V20.139H137.74V16.8863C137.74 15.3083 136.997 14.3934 135.599 14.3934C135.052 14.3934 134.184 14.5432 133.666 15.5493C133.421 14.9446 132.863 14.5236 132.215 14.4531C132.014 14.4164 131.81 14.4044 131.607 14.4173C131.162 14.4531 130.37 14.7298 130.074 15.3572V14.5139H128.99V20.139H130.074V17.1034C130.074 15.9226 130.846 15.4646 131.62 15.4646C132.345 15.4646 132.822 16.0192 132.822 16.9471V20.139H133.898V17.1034C133.898 16.1635 134.462 15.4537 135.385 15.4646ZM125.015 19.1991C125.51 19.21 125.987 19.0125 126.334 18.6543C126.681 18.2962 126.865 17.8089 126.847 17.3085C126.847 16.1755 126.013 15.4646 125.015 15.4646C124.015 15.4646 123.183 16.1755 123.183 17.3085C123.163 17.8078 123.348 18.294 123.693 18.6511C124.038 19.0092 124.513 19.2078 125.006 19.1991H125.015ZM125.015 20.254C123.433 20.254 122.112 19.0852 122.112 17.302C122.112 15.5189 123.433 14.3869 125.015 14.3869C126.597 14.3869 127.929 15.5189 127.929 17.302C127.929 19.0852 126.59 20.2595 125.007 20.2595L125.015 20.254ZM116.539 17.302L116.528 17.3085C116.528 15.5254 117.883 14.3934 119.477 14.3869C120.286 14.3712 121.064 14.6994 121.618 15.2899L120.797 15.9888C120.445 15.6432 119.97 15.4525 119.477 15.4592C118.478 15.4592 117.61 16.17 117.61 17.302C117.61 18.0672 118.065 18.7563 118.762 19.0494C119.46 19.3424 120.263 19.1796 120.797 18.6391L121.63 19.3381C121.074 19.9346 120.292 20.2676 119.477 20.254C117.895 20.254 116.539 19.0852 116.539 17.302ZM113.073 19.0591C113.071 18.8605 113.148 18.6691 113.286 18.527C113.425 18.385 113.615 18.3039 113.813 18.3016C114.012 18.3039 114.202 18.385 114.34 18.527C114.479 18.6691 114.556 18.8605 114.554 19.0591C114.534 19.4545 114.209 19.7659 113.813 19.77C113.418 19.7659 113.093 19.4545 113.073 19.0591Z" fill="#333333"/>
<path d="M116.034 7.36339H112.18L109.479 14.3278L106.792 7.36339H102.938L107.623 18.3684L104.709 25.6443H108.535L116.034 7.36339ZM92.596 13.4845C92.596 15.2427 94.1328 16.3996 95.6425 16.3996C97.1261 16.3996 98.5837 15.323 98.5837 13.4834C98.5837 11.6438 97.1261 10.5661 95.6425 10.5661C94.1328 10.5661 92.596 11.7241 92.596 13.4834V13.4845ZM98.5837 19.6295V18.2371C97.8022 19.4201 95.9789 19.8672 95.0434 19.8672C91.9459 19.8672 88.8474 17.4253 88.8474 13.4834C88.8474 9.54269 91.9449 7.10075 95.0434 7.10075C95.8237 7.10075 97.647 7.36122 98.5837 8.72871V7.36773H102.176V19.6317L98.5837 19.6306V19.6295ZM87.825 19.6295H84.2327V18.1057C83.6325 19.2345 82.1771 19.8922 80.6664 19.8922C77.5418 19.8922 74.7818 17.397 74.7818 13.5334C74.7818 9.59695 77.5418 7.09858 80.6664 7.09858C82.1749 7.09858 83.6347 7.72805 84.2327 8.85786V0.682251H87.825V19.6295ZM84.1545 13.4563C84.1545 11.6178 82.8272 10.5401 81.3436 10.5401C79.8068 10.5401 78.5305 11.6959 78.5305 13.4563C78.5305 15.2731 79.8068 16.4235 81.3425 16.4235C82.8543 16.4257 84.1545 15.2167 84.1545 13.4563ZM65.8997 13.1394C65.8997 11.2748 66.8634 10.6443 68.1387 10.6443C69.3618 10.6443 70.2474 11.4582 70.2474 13.0862V19.6273H73.8658V12.2994C73.8658 8.80685 72.1467 7.09858 69.4128 7.09858C67.9813 7.09858 66.5498 7.91256 65.8986 9.14763V7.36339H62.2824V19.6273H65.8997V13.1394ZM54.9349 19.8379C51.4988 19.8379 48.6325 17.3167 48.6325 13.4552C48.6325 9.59152 51.4955 7.09532 54.9349 7.09532C58.3742 7.09532 61.2622 9.59152 61.2622 13.4552C61.2622 17.3189 58.3709 19.839 54.9349 19.839V19.8379ZM54.9349 16.2672C56.4434 16.2672 57.6948 15.1624 57.6948 13.4563C57.6948 11.8012 56.4445 10.6714 54.9349 10.6714C54.2002 10.6599 53.4932 10.9507 52.9791 11.4756C52.4622 12.0032 52.1814 12.7179 52.201 13.4563C52.202 15.1646 53.4512 16.2672 54.9349 16.2672ZM42.1456 10.6454C43.2125 10.6454 44.1502 11.4865 44.1502 13.0873V19.6295H47.7425V12.664C47.7425 8.96096 45.942 7.09641 43.0562 7.09641C42.1988 7.09641 40.5839 7.35688 39.4117 9.2757C38.7345 7.85721 37.4332 7.12137 35.51 7.12137C34.1463 7.11443 32.9045 7.90552 32.3344 9.14438V7.36448H28.7139V19.6284H32.3312V13.1394C32.3312 11.2748 33.347 10.6443 34.4399 10.6443C35.4818 10.6443 36.4174 11.4582 36.4445 13.0081V19.6284H40.0629V13.1394C40.0629 11.3562 41.0006 10.6464 42.1456 10.6464V10.6454Z" fill="#333333"/>
</svg>
