<svg width="138" height="29" viewBox="0 0 138 29" fill="none" xmlns="http://www.w3.org/2000/svg">
<path d="M136.274 9.84768C137.349 10.7176 136.211 12.0936 135.262 11.3977C134.091 10.6544 131.434 10.3064 131.102 11.9512C130.675 14.5451 137.555 13.0584 137.444 17.2655C137.334 21.2829 131.513 21.3778 129.331 19.5747C128.809 19.1478 128.824 18.4518 129.109 18.0247C129.52 17.6136 129.979 17.4712 130.517 17.914C131.814 18.7997 135.151 19.464 135.388 17.2181C135.183 14.8772 128.603 16.2849 129.093 11.7931C129.457 8.72474 134.091 8.17111 136.274 9.84768ZM125.898 10.4645V16.19C125.898 22.1053 116.361 22.1053 116.361 16.19V10.4645C116.361 9.04112 118.433 8.9778 118.433 10.4645V16.19C118.433 19.3058 123.826 19.4957 123.826 16.19V10.4645C123.826 9.05683 125.898 8.94613 125.898 10.4645ZM60.5902 9.02529C63.358 9.16753 66.2524 11.0813 66.2524 14.8299C66.2524 18.5783 63.358 20.5238 60.5902 20.5238C57.6642 20.6503 54.6274 18.7048 54.6274 14.8299C54.6274 10.939 57.6642 9.02529 60.5902 9.02529ZM74.5247 9.42059C78.5421 9.42059 79.3645 14.7982 76.0115 16.1425L78.115 18.7048C78.9375 19.9228 77.2926 21.0931 76.3436 19.8911L73.9554 16.4748H71.4722V19.3375C71.4722 20.7135 69.3686 20.761 69.3686 19.3691V10.3855C69.3686 9.83184 69.7957 9.42059 70.3176 9.42059H74.5247ZM41.7524 9.27835C42.2111 9.27835 42.48 9.54724 42.7489 9.84768L46.2284 14.5451L49.8346 9.67365C50.3565 9.0253 51.6376 9.27835 51.6376 10.3696V19.2743C51.6376 19.9701 51.1948 20.3656 50.6886 20.3656C50.1192 20.3656 49.6764 19.9701 49.6764 19.2743V13.4222L47.0509 16.7437C46.4814 17.4395 45.7698 17.4395 45.2478 16.7437L42.8912 13.4222V19.2743C42.8912 19.9701 42.3218 20.3656 41.7524 20.3656C41.2463 20.3656 40.8034 19.9701 40.8034 19.2743V10.3696C40.8034 9.54725 41.4993 9.27835 41.7524 9.27835ZM85.992 9.27835C88.0481 9.27835 89.8986 10.6544 89.8986 13.2957C89.8986 15.7946 88.0481 17.1865 85.992 17.1865H83.3506V19.2743C83.3506 19.9701 82.9078 20.3656 82.3384 20.3656C81.8165 20.3656 81.2629 19.9701 81.2629 19.2743V10.3696C81.2629 9.84768 81.6741 9.27835 82.3384 9.27835H85.992ZM101.097 9.42058C101.651 9.42058 102.078 9.83184 102.078 10.4013V19.385C102.078 19.9385 101.651 20.3656 101.097 20.3656C100.528 20.3656 100.022 19.9385 100.022 19.385V15.9212H94.8655V19.385C94.8655 19.9385 94.4542 20.3656 93.9006 20.3656C93.1889 20.3656 92.7777 19.9385 92.7777 19.385V10.4013C92.7777 9.83185 93.1889 9.42058 93.9006 9.42058C94.4542 9.42058 94.8655 9.83184 94.8655 10.4013V13.8493H100.022V10.4013C100.022 9.83185 100.528 9.42058 101.097 9.42058ZM112.106 9.42058C113.561 9.42058 113.529 11.4767 112.106 11.4767H107.551V13.8493H111.536C112.944 13.8493 112.944 15.9212 111.536 15.9212H107.551V18.2936H112.375C113.814 18.2936 113.925 20.3656 112.375 20.3656H106.428C105.874 20.3656 105.447 19.9385 105.447 19.385V10.4013C105.447 9.83185 105.874 9.42058 106.428 9.42058H112.106ZM60.4162 11.0813C58.6448 11.0813 56.7152 12.3309 56.7152 14.8299C56.7152 17.313 58.6448 18.5783 60.4162 18.5783C62.2351 18.5783 64.1805 17.313 64.1805 14.8299C64.1805 12.3309 62.2351 11.0813 60.4162 11.0813ZM85.992 11.2712H83.3506V15.2095H85.992C87.0516 15.2095 87.89 14.2763 87.89 13.2957C87.89 12.1886 87.0516 11.2712 85.992 11.2712ZM74.5248 11.3344H71.4722V14.6558H74.5248C76.5808 14.6558 76.7074 11.3344 74.5248 11.3344Z" fill="#3DB5E6"/>
<path d="M28.257 17.7239C26.715 23.9189 21.0732 28.3264 14.4283 28.3264C7.75342 28.3264 2.16013 23.6581 0.681335 17.4375C2.45951 17.4375 4.12185 17.4456 4.89359 17.4456C5.25765 17.4456 5.32835 17.4519 5.34942 17.4504C5.9301 17.4218 6.65823 17.2302 7.14263 16.0522L8.98851 11.2236L13.0879 21.0938C13.4565 21.8806 14.0718 21.8248 14.4389 21.8248H14.4735C15.1896 21.8248 15.501 21.5739 15.7733 21.0549L20.4037 11.2976L21.9833 15.695L22.0796 15.9079C22.4136 16.6406 22.6538 17.3642 23.4803 17.4588C23.6507 17.4783 25.6292 17.4437 28.2965 17.4437C28.2965 17.4437 28.2965 17.4608 28.257 17.7239Z" fill="#3DB5E6"/>
<path d="M28.7097 14.0751C28.7097 14.1489 28.7097 14.3342 28.7082 14.3342H28.7052H24.4479L21.9641 7.39596C21.743 6.87996 21.4105 6.1064 20.4417 6.1064C19.849 6.1064 19.3134 6.59592 19.0095 7.40377L14.5069 17.8332L10.1728 7.46703C9.74857 6.54636 9.45522 6.11336 8.60675 6.11336C8.03057 6.11336 7.60784 6.3256 7.1475 7.41627L4.57502 14.4373L0.301078 14.4328C0.298067 14.326 0.29657 14.2192 0.29657 14.1124C0.29657 6.30766 6.62398 0 14.4287 0C22.2334 0 28.7097 6.27043 28.7097 14.0751Z" fill="#D8292F"/>
</svg>
