<svg width="138" height="22" viewBox="0 0 138 22" fill="none" xmlns="http://www.w3.org/2000/svg">
<path d="M19.2721 21.8438V16.2834H13.2168C11.5701 16.2834 10.0448 17.1479 9.20137 18.5591L7.23828 21.8438H19.2721Z" fill="#63D2F9"/>
<path d="M0 0.482666V6.04306H15.949L19.2722 0.482666H0Z" fill="#4E5EE4"/>
<path d="M7.63304 9.17288L0.0175781 21.8439H6.50577L15.6125 6.68481H12.0297C10.2276 6.68481 8.55802 7.62962 7.63304 9.17288Z" fill="#63B0F9"/>
<path d="M33.0764 16.5071C29.8138 16.5071 27.4131 14.1356 27.4131 10.9532C27.4131 7.80143 29.8292 5.39935 33.0918 5.39935C36.3543 5.39935 38.7704 7.83203 38.7704 10.9532C38.7704 14.105 36.3389 16.5071 33.0764 16.5071ZM33.0918 14.564C35.1539 14.564 36.6313 13.034 36.6313 10.9532C36.6313 8.90303 35.1539 7.34244 33.0918 7.34244C31.0142 7.34244 29.5368 8.90303 29.5368 10.9532C29.5368 13.034 31.0142 14.564 33.0918 14.564ZM40.9552 19.8272V8.26043H42.925V9.28552H43.0327C43.2482 8.94893 43.9869 8.06153 45.4643 8.06153C47.7265 8.06153 49.2808 9.74452 49.2808 12.2537C49.2808 14.7629 47.7419 16.5071 45.5258 16.5071C44.0946 16.5071 43.3251 15.7115 43.0635 15.2678H42.9558V19.8272H40.9552ZM45.0795 14.7017C46.3722 14.7017 47.2494 13.7072 47.2494 12.2843C47.2494 10.8155 46.3722 9.86692 45.0641 9.86692C43.7406 9.86692 42.9096 10.9226 42.9096 12.2843C42.9096 13.7837 43.833 14.7017 45.0795 14.7017ZM55.0051 16.5071C52.6197 16.5071 50.9269 14.7323 50.9269 12.3302C50.9269 9.79042 52.6351 8.06153 55.0051 8.06153C57.6059 8.06153 59.0217 9.97402 59.0217 12.2384V12.8657H52.866C52.9275 14.0897 53.7739 14.9159 55.0667 14.9159C56.0516 14.9159 56.8057 14.4569 57.0827 13.799H58.9448C58.5447 15.4361 57.0981 16.5071 55.0051 16.5071ZM52.8968 11.4581H57.1134C57.0211 10.3718 56.1747 9.65272 55.0051 9.65272C53.8817 9.65272 53.0199 10.4483 52.8968 11.4581ZM61.1757 16.3082V8.26043H63.084V9.23962H63.1917C63.5149 8.64293 64.3151 8.06153 65.4693 8.06153C67.2853 8.06153 68.3933 9.33142 68.3933 11.045V16.3082H66.3927V11.5652C66.3927 10.586 65.7617 9.92812 64.8383 9.92812C63.8688 9.92812 63.1763 10.6931 63.1763 11.7029V16.3082H61.1757ZM70.3779 16.3082V14.4875L75.9797 7.46484V7.35774H70.578V5.59825H78.5343V7.40364L72.9326 14.4263V14.5487H78.5651V16.3082H70.3779ZM83.9816 16.5071C81.5962 16.5071 79.9034 14.7323 79.9034 12.3302C79.9034 9.79042 81.6116 8.06153 83.9816 8.06153C86.5824 8.06153 87.9982 9.97402 87.9982 12.2384V12.8657H81.8425C81.904 14.0897 82.7504 14.9159 84.0431 14.9159C85.0281 14.9159 85.7821 14.4569 86.0592 13.799H87.9213C87.5211 15.4361 86.0745 16.5071 83.9816 16.5071ZM81.8732 11.4581H86.0899C85.9976 10.3718 85.1512 9.65272 83.9816 9.65272C82.8582 9.65272 81.9964 10.4483 81.8732 11.4581ZM90.1522 19.8272V8.26043H92.122V9.28552H92.2297C92.4452 8.94893 93.1839 8.06153 94.6612 8.06153C96.9235 8.06153 98.4778 9.74452 98.4778 12.2537C98.4778 14.7629 96.9389 16.5071 94.7228 16.5071C93.2916 16.5071 92.5221 15.7115 92.2605 15.2678H92.1528V19.8272H90.1522ZM94.2765 14.7017C95.5692 14.7017 96.4464 13.7072 96.4464 12.2843C96.4464 10.8155 95.5692 9.86692 94.2611 9.86692C92.9376 9.86692 92.1066 10.9226 92.1066 12.2843C92.1066 13.7837 93.03 14.7017 94.2765 14.7017ZM100.632 19.8272V8.26043H102.602V9.28552H102.709C102.925 8.94893 103.663 8.06153 105.141 8.06153C107.403 8.06153 108.957 9.74452 108.957 12.2537C108.957 14.7629 107.418 16.5071 105.202 16.5071C103.771 16.5071 103.002 15.7115 102.74 15.2678H102.632V19.8272H100.632ZM104.756 14.7017C106.049 14.7017 106.926 13.7072 106.926 12.2843C106.926 10.8155 106.049 9.86692 104.741 9.86692C103.417 9.86692 102.586 10.9226 102.586 12.2843C102.586 13.7837 103.51 14.7017 104.756 14.7017ZM114.682 16.5071C112.296 16.5071 110.604 14.7323 110.604 12.3302C110.604 9.79042 112.312 8.06153 114.682 8.06153C117.282 8.06153 118.698 9.97402 118.698 12.2384V12.8657H112.543C112.604 14.0897 113.451 14.9159 114.743 14.9159C115.728 14.9159 116.482 14.4569 116.759 13.799H118.621C118.221 15.4361 116.775 16.5071 114.682 16.5071ZM112.573 11.4581H116.79C116.698 10.3718 115.851 9.65272 114.682 9.65272C113.558 9.65272 112.696 10.4483 112.573 11.4581ZM122.822 16.3082C121.406 16.3082 120.606 15.4667 120.606 14.0438V4.83325H122.607V13.8602C122.607 14.3192 122.837 14.564 123.253 14.564H123.576V16.3082H122.822ZM126.5 7.18944C125.776 7.18944 125.268 6.74574 125.268 6.02664C125.268 5.33815 125.776 4.87915 126.5 4.87915C127.223 4.87915 127.731 5.33815 127.731 6.02664C127.731 6.74574 127.223 7.18944 126.5 7.18944ZM125.499 16.3082V8.26043H127.5V16.3082H125.499ZM129.931 16.3082V8.26043H131.839V9.23962H131.947C132.27 8.64293 133.07 8.06153 134.224 8.06153C136.04 8.06153 137.148 9.33142 137.148 11.045V16.3082H135.148V11.5652C135.148 10.586 134.517 9.92812 133.594 9.92812C132.624 9.92812 131.931 10.6931 131.931 11.7029V16.3082H129.931Z" fill="#282846"/>
</svg>
