<svg width="138" height="19" viewBox="0 0 138 19" fill="none" xmlns="http://www.w3.org/2000/svg">
<path d="M59.3563 11.8481H68.4188L63.6269 4.13862L54.8321 18.0777H50.8294L61.5268 1.3339C61.9919 0.657377 62.7671 0.248657 63.6269 0.248657C64.4584 0.248657 65.2335 0.64329 65.6846 1.30571L76.4242 18.0777H72.4216L70.5329 14.9629H61.3576L59.3563 11.8481ZM100.934 14.9629V0.417786H97.5372V16.3864C97.5372 16.8233 97.7064 17.2461 98.0305 17.5703C98.3546 17.8945 98.7915 18.0777 99.2708 18.0777H114.76L116.762 14.9629H100.934ZM44.7407 12.3555C48.0388 12.3555 50.7167 9.6917 50.7167 6.39367C50.7167 3.09566 48.0388 0.417786 44.7407 0.417786H29.8813V18.0777H33.2766V3.53258H44.5152C46.0938 3.53258 47.3623 4.81513 47.3623 6.39367C47.3623 7.97221 46.0938 9.25478 44.5152 9.25478L34.9398 9.24068L45.079 18.0777H50.012L43.1904 12.3555H44.7407ZM8.97987 18.0777C4.10467 18.0777 0.148438 14.1313 0.148438 9.25478C0.148438 4.37822 4.10467 0.417786 8.97987 0.417786H19.2445C24.1211 0.417786 28.0745 4.37822 28.0745 9.25478C28.0745 14.1313 24.1211 18.0777 19.2445 18.0777H8.97987ZM19.0162 14.9629C22.1747 14.9629 24.7328 12.4118 24.7328 9.25478C24.7328 6.0977 22.1747 3.53258 19.0162 3.53258H9.20674C6.04966 3.53258 3.49012 6.0977 3.49012 9.25478C3.49012 12.4118 6.04966 14.9629 9.20674 14.9629H19.0162ZM83.5135 18.0777C78.637 18.0777 74.6766 14.1313 74.6766 9.25478C74.6766 4.37822 78.637 0.417786 83.5135 0.417786H95.7049L93.7177 3.53258H83.7391C80.582 3.53258 78.0169 6.0977 78.0169 9.25478C78.0169 12.4118 80.582 14.9629 83.7391 14.9629H95.9868L93.9855 18.0777H83.5135ZM125.049 14.9629C122.441 14.9629 120.229 13.2152 119.552 10.8051H134.069L136.07 7.69033H119.552C120.229 5.29434 122.441 3.53258 125.049 3.53258H135.013L137.029 0.417786H124.823C119.947 0.417786 115.986 4.37822 115.986 9.25478C115.986 14.1313 119.947 18.0777 124.823 18.0777H135.295L137.297 14.9629H125.049Z" fill="#EA1B22"/>
</svg>
