<svg width="138" height="22" viewBox="0 0 138 22" fill="none" xmlns="http://www.w3.org/2000/svg">
<path d="M130.658 9.88635V12.7458H132.668V15.5829C132.673 15.8002 132.664 16.0321 132.634 16.2317L132.617 16.3286C132.613 16.3502 132.609 16.3724 132.605 16.3952L132.588 16.4649C132.585 16.4768 132.582 16.4888 132.579 16.5009L132.555 16.5745C132.374 17.0969 131.83 17.7589 130.608 17.7589C129.306 17.7589 128.783 16.9989 128.64 16.4649L128.623 16.3952L128.61 16.3286C128.574 16.1098 128.559 15.8364 128.559 15.5829V6.62205C128.559 6.3403 128.576 6.03488 128.627 5.78607L128.661 5.63487C128.664 5.6244 128.667 5.61376 128.669 5.60296L128.688 5.53637C128.692 5.52499 128.696 5.51347 128.699 5.50184L128.724 5.43065C128.91 4.93556 129.402 4.27616 130.597 4.27616C131.52 4.27616 132.017 4.65218 132.282 5.04082L132.329 5.11375C132.344 5.13805 132.358 5.16231 132.371 5.18644L132.409 5.25836L132.441 5.32899L132.47 5.39777L132.494 5.4642L132.515 5.52772L132.532 5.58781L132.546 5.64394L132.557 5.69558C132.562 5.72126 132.567 5.74852 132.571 5.77686L132.583 5.86463C132.585 5.87963 132.586 5.89478 132.588 5.91001L132.6 6.04765L132.608 6.17965L132.615 6.35963L132.617 6.45186V7.53996H137.554L137.555 6.86262L137.559 6.62037L137.558 6.43259L137.553 6.21395L137.549 6.09624L137.541 5.91276L137.528 5.72481L137.517 5.59915C137.183 2.289 134.695 1.01545 131.668 0.793839L131.465 0.780613L131.261 0.770438C131.158 0.766103 131.056 0.762889 130.952 0.760758L130.745 0.75793C130.71 0.757579 130.675 0.757579 130.641 0.757579L130.432 0.758999C130.398 0.759474 130.363 0.760069 130.329 0.760786L130.123 0.766552L129.918 0.775296L129.715 0.78708L129.513 0.801967C129.446 0.807453 129.38 0.813468 129.313 0.82002L129.116 0.841304C129.083 0.845124 129.05 0.849081 129.017 0.853177L128.822 0.879424C128.37 0.944596 127.935 1.03744 127.522 1.16157L127.347 1.21669C125.434 1.84436 124.044 3.17885 123.758 5.59915L123.729 5.86782L123.708 6.07583L123.69 6.29391L123.674 6.51088C123.665 6.65267 123.659 6.78625 123.659 6.89672L123.66 15.2455L123.661 15.3492L123.666 15.5067L123.67 15.6171L123.677 15.735L123.686 15.8632L123.697 16.0045L123.719 16.2469L123.737 16.4328C124.015 19.5088 126.346 20.8772 129.199 21.2L129.399 21.2209C129.733 21.2528 130.074 21.2708 130.419 21.2759L130.627 21.2774L130.836 21.2759C131.183 21.2708 131.525 21.2528 131.861 21.2209L132.061 21.2C134.924 20.8772 137.24 19.5088 137.522 16.4328L137.545 16.1616L137.561 15.9321L137.577 15.6749L137.586 15.4534L137.594 15.1398V9.88635H130.658ZM96.6117 1.28501H91.653V15.7896C91.6609 16.0424 91.653 16.3263 91.6095 16.5345L91.5949 16.5977L91.5768 16.6648C91.5702 16.6879 91.5629 16.7115 91.5549 16.7355L91.529 16.8091C91.3419 17.3078 90.8654 17.9585 89.7253 17.9585C88.6562 17.9585 88.1681 17.3712 87.9637 16.8849L87.9337 16.8091C87.9291 16.7966 87.9246 16.7842 87.9204 16.772L87.897 16.6998L87.8777 16.6308C87.8748 16.6196 87.8721 16.6085 87.8695 16.5977L87.8558 16.5345C87.8062 16.3263 87.7999 16.0424 87.8062 15.7896V1.28501H82.849V15.3394L82.8482 15.4524L82.8499 15.65L82.8568 15.9407L82.8704 16.294L82.8799 16.4719L82.8863 16.5663L82.8926 16.6358C83.1355 19.236 84.661 20.5895 86.8153 21.1558L86.9989 21.2018C87.3997 21.2975 87.821 21.3672 88.2588 21.4137L88.462 21.4336L88.6674 21.4502L88.875 21.4637C88.9794 21.4696 89.0845 21.4744 89.1903 21.4781L89.4029 21.4839L89.6174 21.4868C89.6533 21.4871 89.6893 21.4871 89.7253 21.4871L89.9411 21.4857C89.9769 21.4852 90.0127 21.4846 90.0483 21.4839L90.2613 21.4781C90.3674 21.4744 90.4726 21.4696 90.5771 21.4637L90.7851 21.4502L90.9909 21.4336L91.1944 21.4137C94.0945 21.1057 96.27 19.7854 96.5696 16.6358L96.5736 16.6044L96.5817 16.5219L96.5937 16.3574L96.6044 16.1582L96.6103 16.0143L96.6164 15.7935L96.6181 15.65L96.6175 15.5152L96.6144 15.3937C96.6136 15.3748 96.6127 15.3567 96.6117 15.3394V1.28501ZM51.0509 1.28501L48.5774 16.6111L46.1053 1.28501H38.1067L37.6825 20.8915H42.5827L42.7154 2.74119L46.087 20.8915H51.0587L54.4333 2.74119L54.5665 20.8915H59.479L59.0405 1.28501H51.0509ZM21.4363 1.28501L17.8044 20.8915H23.1006L25.8375 2.74119L28.5087 20.8915H33.7682L30.1514 1.28501H21.4363ZM113.941 17.0705L109.324 1.28501H102.048V20.6871H106.861L106.582 4.3965L111.54 20.6871H118.518V1.28501H113.674L113.941 17.0705ZM69.4207 6.38766C69.3336 6.00046 69.3588 5.58908 69.4039 5.37408C69.4166 5.31702 69.4317 5.25949 69.4495 5.20205L69.4782 5.11603C69.6739 4.57248 70.1315 4.06191 71.1808 4.06191C72.3132 4.06191 72.9771 4.76784 72.9771 5.82725V7.02612H77.8108V5.65957C77.8108 2.57568 75.7925 1.38938 73.6358 0.97359L73.4583 0.941127L73.2804 0.911996L73.1023 0.886056L72.9243 0.86317L72.7466 0.843197L72.5694 0.826C72.5105 0.820714 72.4517 0.815868 72.393 0.811438L72.2176 0.799372L72.0435 0.789664L71.8708 0.782175L71.6998 0.776765L71.5307 0.773296L71.2812 0.771426L71.1712 0.771814L70.9526 0.774934C70.9163 0.775717 70.88 0.776632 70.8439 0.77768L70.6281 0.785576C70.5564 0.788746 70.4852 0.792458 70.4142 0.79672L70.2025 0.811165C67.2536 1.03674 64.9523 2.24804 64.492 5.08859C64.3558 5.95363 64.3221 6.72149 64.5389 7.70134C64.8801 9.31149 66.2214 10.4573 67.7611 11.4183L67.9995 11.5647C68.0394 11.5889 68.0795 11.613 68.1196 11.6369L68.3614 11.7794L68.6047 11.9195L68.8489 12.0576L69.2154 12.2611L70.1783 12.7888L70.4122 12.9185L70.6422 13.0478L70.8675 13.1769L71.0875 13.306C72.1369 13.9305 72.9777 14.5639 73.2802 15.3211C73.4476 15.7709 73.411 16.338 73.3301 16.6998L73.3162 16.7581C73.2962 16.8451 73.271 16.9321 73.2394 17.0177L73.2056 17.1027C72.9829 17.623 72.4961 18.0665 71.4265 18.0665C70.2065 18.0665 69.4721 17.3651 69.4721 16.308L69.4706 14.4263H64.2677V15.922C64.2677 19.4326 66.495 20.9575 69.2845 21.4103L69.4921 21.4419C69.6312 21.4616 69.7715 21.4788 69.9129 21.4936L70.1258 21.5139C70.3751 21.5355 70.6273 21.5498 70.8814 21.5573L71.0997 21.5621C71.1361 21.5626 71.1726 21.563 71.2091 21.5633L71.3187 21.5637C71.3917 21.5637 71.4644 21.5632 71.5368 21.5621L71.7531 21.5574C71.7891 21.5563 71.8249 21.5551 71.8607 21.5538L72.0743 21.5443C72.1452 21.5405 72.2158 21.5363 72.286 21.5314L72.4957 21.5153C72.6348 21.5034 72.7725 21.4892 72.9086 21.4728L73.1116 21.4464L73.3121 21.4165C73.3786 21.4059 73.4446 21.3948 73.5102 21.383L73.7056 21.3459C76.0669 20.8728 77.8238 19.5899 78.1767 17.1234C78.2252 16.7555 78.2551 16.4158 78.2712 16.1052L78.2799 15.9025C78.2811 15.8694 78.2821 15.8368 78.2829 15.8044L78.2861 15.6148V15.434L78.2831 15.2621L78.2775 15.0991L78.2696 14.9451C78.2681 14.9202 78.2665 14.8957 78.2649 14.8715L78.2541 14.7312L78.2419 14.6001L78.2286 14.4782L78.207 14.3128L78.1847 14.1686L78.1557 14.0097L78.1422 13.9447C77.8017 12.2373 76.3069 11.0314 74.6463 10.0387L74.4081 9.8983L74.1682 9.76062L73.9274 9.62547L73.5657 9.42708L73.086 9.16967L72.2679 8.73455L71.9313 8.55243C71.8945 8.5323 71.8579 8.5122 71.8215 8.49212L71.6061 8.372L71.3968 8.25234C70.3665 7.65495 69.5877 7.06839 69.4207 6.38766ZM5.65702 6.33957C5.56804 5.96902 5.58195 5.57921 5.6276 5.3527L5.6465 5.26789L5.66795 5.18397C5.83124 4.59523 6.27771 3.9884 7.43167 3.9884C8.57843 3.9884 9.25365 4.70113 9.25365 5.76909V6.98257H14.1441V5.60519C14.1441 2.66231 12.3133 1.42639 10.2675 0.942931L10.0891 0.902764C9.9401 0.870834 9.79017 0.842709 9.63997 0.818027L9.45964 0.790038L9.27929 0.765215L9.09916 0.743417L8.91948 0.724506C8.85969 0.718668 8.80001 0.713288 8.74048 0.708342L8.56241 0.694786L8.3855 0.683698L8.20998 0.674939L8.03609 0.668369L7.86408 0.663849L7.61007 0.6604H7.52659C7.45327 0.6604 7.38023 0.660913 7.3075 0.661946L7.09019 0.666615C6.94594 0.670781 6.80295 0.677062 6.66133 0.685526L6.44997 0.699867C6.41492 0.702533 6.37995 0.705337 6.34509 0.70828L6.137 0.727625C6.06802 0.734637 5.99942 0.742215 5.93123 0.750367L5.72785 0.776557C5.5594 0.799833 5.39355 0.826752 5.23055 0.857444L5.03633 0.896094L4.84494 0.938415L4.65647 0.984458C4.59414 1.00043 4.53232 1.01703 4.47101 1.03427L4.28867 1.08791C2.39075 1.67132 1.023 2.89492 0.677739 5.01809C0.535244 5.89698 0.510823 6.67013 0.716762 7.66081C1.07933 9.37277 2.55804 10.565 4.21238 11.5668L4.45562 11.712C4.49633 11.736 4.53712 11.7599 4.57798 11.7837L4.82375 11.9254L5.19384 12.1339L5.68651 12.4057L6.41322 12.8039L6.76624 13.0004L7.10943 13.1962L7.33166 13.3268C7.36822 13.3485 7.40453 13.3703 7.44057 13.3921L7.65355 13.5231C8.56179 14.092 9.27313 14.6779 9.54771 15.3649C9.72754 15.8116 9.68549 16.3785 9.6005 16.7521L9.58597 16.8125C9.56499 16.8985 9.53922 16.9845 9.50735 17.0692L9.47341 17.1534C9.24495 17.6829 8.75464 18.137 7.67109 18.137C6.44629 18.137 5.71367 17.4235 5.71367 16.3518L5.70687 14.4651H0.445618V15.9643C0.445618 20.1726 3.6185 21.5558 7.13236 21.6597L7.35239 21.6645L7.57316 21.6661L7.79146 21.6646C7.90019 21.663 8.00828 21.6603 8.11567 21.6564L8.32952 21.647C8.43596 21.6414 8.54168 21.6347 8.64661 21.6267L8.85541 21.6091L9.06203 21.5881C9.13052 21.5805 9.19864 21.5724 9.26636 21.5637L9.46833 21.5359C9.53524 21.526 9.60175 21.5156 9.66782 21.5046L9.86476 21.4697C12.31 21.0119 14.1324 19.7148 14.4993 17.1778C14.5498 16.8154 14.5814 16.4801 14.5991 16.1728L14.6088 15.9721L14.6148 15.7798C14.6162 15.7171 14.617 15.6558 14.6173 15.5959L14.6167 15.4205L14.6132 15.2536L14.6073 15.0954L14.5992 14.9458L14.5893 14.8049L14.5779 14.6728L14.5588 14.4913L14.5382 14.3299L14.5103 14.1463L14.4787 13.9684C14.1394 12.2812 12.6892 11.0809 11.0576 10.0937L10.8177 9.95072C10.7775 9.92713 10.7373 9.90367 10.697 9.88031L10.4543 9.74153L10.2107 9.60532L9.96682 9.47149L9.72323 9.33983L8.64841 8.76931L8.3047 8.5851L8.08149 8.46339L7.86379 8.34235L7.65224 8.22177C7.61753 8.2017 7.5831 8.18165 7.54897 8.1616L7.34785 8.04136C6.45982 7.50043 5.80772 6.95923 5.65702 6.33957Z" fill="#1428A0"/>
</svg>
