<svg width="138" height="29" viewBox="0 0 138 29" fill="none" xmlns="http://www.w3.org/2000/svg">
<path d="M25.4868 15.1637L25.5049 15.1652L27.4006 15.3633C27.5337 15.3777 27.6559 15.4426 27.7423 15.5442L27.7563 15.5614L27.7383 15.5704C27.8269 15.6822 27.866 15.8253 27.8464 15.9666C27.4322 19.2594 25.8715 22.3011 23.4383 24.5578C20.9135 26.8994 17.5972 28.2005 14.1536 28.2005C12.4811 28.2032 10.8229 27.8953 9.26318 27.2926L9.1782 27.2594C9.05054 27.2122 8.94797 27.1152 8.89367 26.9911L8.8855 26.9713C8.83233 26.8477 8.82938 26.7087 8.87664 26.5834L9.6249 24.7579C9.72628 24.4998 10.0136 24.3698 10.2731 24.4613L10.2904 24.4677C14.115 25.9445 18.4468 25.1127 21.4526 22.3245C23.3658 20.5665 24.5994 18.1915 24.9376 15.6154C24.9734 15.3494 25.2042 15.1559 25.4687 15.1629L25.4868 15.1637ZM70.2573 7.41604C71.8737 7.41604 73.1378 7.9092 73.9451 8.85632L73.9721 8.88842V8.08693C73.9829 7.86322 74.1561 7.68242 74.3773 7.66058L74.3953 7.65916H76.5521C76.774 7.6745 76.9505 7.84916 76.9697 8.06901L76.9709 8.08693V20.0596C77.0406 21.7479 76.5217 23.4079 75.503 24.7559C74.3412 26.1698 72.5763 26.8857 70.2573 26.8857C67.0334 26.8857 64.4893 24.846 64.0706 21.9327C64.0498 21.7224 64.1779 21.5268 64.3771 21.4609L64.3948 21.4554L66.5021 20.9601C66.5131 20.9577 66.5241 20.9556 66.5352 20.9539C66.7665 20.92 66.9815 21.0801 67.0154 21.3114C67.2078 22.9455 68.6124 24.1647 70.2573 24.1255C72.7492 24.1255 73.9215 22.859 73.9447 20.2122L73.9451 20.1316V19.0825C73.011 20.1301 71.6602 20.7091 70.2573 20.6629C66.6732 20.6629 64.0752 17.8803 64.0752 14.053C64.0423 12.331 64.6487 10.6578 65.7771 9.35666C66.9233 8.09744 68.5548 7.39079 70.2573 7.41604ZM5.34691 21.9777L5.37363 21.9775L5.40045 21.9777C6.26079 21.9876 6.95349 22.6832 6.96284 23.5404L6.96291 23.5672C6.96291 23.5761 6.9628 23.5851 6.96265 23.594C6.94767 24.4717 6.2241 25.1711 5.34639 25.1562C4.46868 25.1412 3.7693 24.4177 3.78412 23.54C3.7988 22.6802 4.49343 21.9914 5.34691 21.9777ZM107.592 7.24945L107.702 7.25027C111.555 7.30348 113.942 9.98542 113.942 14.2781C113.942 14.5052 113.93 14.7322 113.906 14.958C113.887 15.1657 113.717 15.3259 113.51 15.3357L113.492 15.3362H104.334C104.39 17.2598 105.98 18.7817 107.905 18.7538C109.396 18.8475 110.755 17.8991 111.182 16.4665C111.261 16.2608 111.482 16.1502 111.692 16.2092L111.709 16.2143L113.537 16.8582C113.638 16.8907 113.721 16.9623 113.767 17.0564L113.776 17.0743C113.826 17.1735 113.834 17.2887 113.799 17.394C112.949 19.908 110.557 21.5715 107.905 21.4915C106.165 21.5088 104.492 20.8294 103.258 19.6048C101.91 18.1872 101.191 16.2865 101.263 14.3322C101.263 9.94138 104.419 7.30259 107.5 7.25025L107.592 7.24945ZM55.7676 7.24946H55.7721C59.694 7.24946 62.13 9.94206 62.13 14.2781C62.1297 14.5052 62.1176 14.7322 62.0939 14.958C62.0757 15.1668 61.9048 15.3281 61.6971 15.3359L61.6797 15.3362H52.5212C52.5777 17.2651 54.176 18.7892 56.1053 18.7538C57.5978 18.8492 58.9579 17.9001 59.3833 16.4665C59.4596 16.2591 59.683 16.1477 59.8931 16.209L59.9101 16.2143L61.7382 16.8582C61.8451 16.8927 61.932 16.9714 61.9768 17.0743C62.0196 17.1766 62.0196 17.2917 61.9768 17.394C61.1284 19.9064 58.738 21.5695 56.0873 21.4915C54.3454 21.5112 52.6683 20.8316 51.4315 19.6048C50.086 18.1861 49.3672 16.2862 49.4368 14.3322C49.4368 9.89703 52.6563 7.24946 55.7676 7.24946ZM41.8993 7.2449C43.6598 7.2449 45.0827 7.67268 46.1363 8.51463C46.8488 9.08242 47.3768 9.84861 47.6537 10.7165L47.6546 10.72C47.6908 10.8696 47.6028 11.0203 47.4569 11.0637L47.4421 11.0677L45.2583 11.7881C45.1614 11.8265 45.0535 11.8265 44.9567 11.7881C44.874 11.7495 44.8117 11.6774 44.7855 11.5901L44.7739 11.5471C44.575 10.836 43.9247 9.69438 41.8993 9.69438C40.4585 9.69438 39.5939 10.5229 39.5939 11.3244L39.5943 11.3561C39.6051 11.8773 39.8885 12.5315 41.1312 12.7802L41.1699 12.7877L43.5743 13.238C46.2311 13.7729 47.7625 15.2169 47.7928 17.2293L47.7933 17.2904L47.7843 17.2545L47.7838 17.3155C47.7451 19.3328 45.7939 21.4554 42.201 21.4554C37.991 21.4554 36.3385 19.0735 36.0323 17.6687C36.0123 17.5217 36.102 17.3829 36.2422 17.3397L36.2574 17.3354L38.5088 16.633C38.549 16.6265 38.5901 16.6265 38.6304 16.633C38.6876 16.632 38.7442 16.6442 38.7958 16.6684L38.8149 16.6781C38.8976 16.7177 38.9587 16.7919 38.9815 16.8806C39.2653 18.2315 40.4855 19.0375 42.2415 19.0375C43.876 19.0375 44.6189 18.182 44.6189 17.4075C44.6189 16.6416 43.9715 16.0738 42.8553 15.8393L42.8179 15.8316L40.2919 15.3408C37.9369 14.895 36.4691 13.4316 36.4691 11.527C36.4691 9.20807 38.959 7.2449 41.8993 7.2449ZM132.71 3.49419H134.678C134.91 3.50812 135.092 3.69642 135.101 3.92706L135.101 3.94443V7.64117H137.469C137.699 7.65736 137.879 7.84482 137.888 8.07373L137.888 8.09141V10.0546L137.888 10.0717C137.882 10.2918 137.706 10.4706 137.486 10.4818L137.469 10.4824H135.101V17.0518C135.101 18.1414 135.533 18.5917 136.645 18.5917C136.87 18.5878 137.095 18.5707 137.318 18.5406L137.402 18.5286C137.524 18.5079 137.65 18.5425 137.744 18.6232C137.829 18.7021 137.88 18.8105 137.887 18.9258L137.888 18.9475V20.798C137.89 20.9866 137.767 21.1537 137.586 21.2078C137.068 21.353 136.532 21.4258 135.994 21.4245L135.92 21.4239C133.571 21.4239 132.105 19.9278 132.076 17.5081L132.075 17.4345V10.5094H130.026C129.803 10.4962 129.624 10.321 129.604 10.0997L129.603 10.0816V8.10941C129.602 7.87674 129.779 7.6831 130.009 7.66053L130.026 7.65916L130.577 7.65909L130.636 7.65805C131.279 7.63958 132.266 7.37899 132.286 5.94378L132.287 5.89856V3.94443C132.286 3.71176 132.463 3.51813 132.693 3.49556L132.71 3.49419ZM94.4662 7.24746L94.5178 7.24946H94.5131C96.8313 7.24946 99.1714 8.86458 99.218 12.392L99.2187 12.4995V20.8386C99.2082 21.0623 99.0344 21.243 98.8135 21.2649L98.7955 21.2663H96.6385C96.4152 21.2531 96.2365 21.0779 96.2165 20.8566L96.2153 20.8386V12.7697L96.2149 12.7076C96.2018 11.6795 95.8523 10.0276 93.7347 10.0276C92.1696 10.0276 91.0549 11.2456 91.0328 13.0175L91.0324 13.0714V20.8386C91.0219 21.0623 90.8488 21.243 90.6273 21.2649L90.6092 21.2663H88.4259C88.2018 21.2531 88.0232 21.0779 88.0039 20.8566L88.0027 20.8386V12.7697L88.0023 12.7076C87.9892 11.6795 87.6398 10.0276 85.5213 10.0276C83.8943 10.0276 82.7926 11.2367 82.7708 13.0435L82.7704 13.0984V20.8386C82.7592 21.0623 82.5861 21.243 82.3652 21.2649L82.3472 21.2663H80.1902C79.9684 21.251 79.7919 21.0763 79.7728 20.8565L79.7716 20.8386V8.0599C79.7822 7.83777 79.953 7.65759 80.1723 7.63372L80.1902 7.63213H82.2661C82.4895 7.64529 82.6689 7.82055 82.6881 8.04186L82.6893 8.0599V8.82988C83.623 7.80613 84.9506 7.23092 86.3361 7.24946C87.9409 7.20243 89.4384 8.05087 90.2223 9.45119C91.1558 8.02481 92.7653 7.19034 94.4662 7.24746ZM126.762 8.83884C127.588 9.92742 128.014 11.2663 127.97 12.631L127.968 12.6886V20.8386C127.958 21.0607 127.787 21.2409 127.567 21.2648L127.55 21.2663H125.366C125.142 21.2531 124.963 21.0779 124.944 20.8566L124.942 20.8386V13.1254C124.942 11.1082 123.992 10.0816 122.191 10.0816C121.396 10.0559 120.635 10.4103 120.142 11.0362C119.666 11.7232 119.42 12.5431 119.439 13.378L119.44 13.4271V20.8386C119.429 21.0623 119.256 21.243 119.035 21.2649L119.017 21.2663H116.838C116.614 21.2531 116.435 21.0779 116.416 20.8566L116.415 20.8386V8.05087C116.425 7.82716 116.599 7.64642 116.82 7.62452L116.838 7.62309H118.968C119.19 7.63843 119.366 7.81317 119.385 8.03295L119.386 8.05087V8.95144C120.3 7.84459 121.671 7.21741 123.106 7.24946C124.504 7.18968 125.852 7.77578 126.762 8.83884ZM1.26243 15.71H16.7653C17.0501 15.7124 17.2803 15.9405 17.2875 16.2232L17.2876 16.2413V18.182C17.29 18.4669 17.0658 18.7009 16.7833 18.7128L16.7652 18.7133H1.26243C0.977496 18.7109 0.747426 18.4827 0.740112 18.2001V18.182V16.2413V16.2232C0.747273 15.9467 0.967671 15.7224 1.24393 15.7105L1.26243 15.71ZM70.6311 10.1086C68.5058 10.1086 67.155 11.6216 67.155 14.053C67.155 16.4845 68.4877 17.9928 70.6311 17.9928C72.6753 17.9928 74.0531 16.4079 74.0531 14.053C74.0531 11.6935 72.6753 10.1086 70.6311 10.1086ZM52.617 12.7394L52.6112 12.7877H59.0186C58.8626 11.076 57.6562 10.0086 55.8496 9.9874L55.7946 9.98708C54.2027 9.96119 52.847 11.1256 52.6235 12.6918L52.617 12.7394ZM104.448 12.7394L104.442 12.7877H110.849C110.693 11.076 109.487 10.0086 107.68 9.9874L107.625 9.98708C106.033 9.96119 104.677 11.1256 104.454 12.6918L104.448 12.7394ZM18.7059 0.900594C18.8401 0.949017 18.9489 1.04972 19.0076 1.17978C19.0614 1.31107 19.0614 1.45827 19.0076 1.58948L18.3322 3.39062C18.2386 3.65768 17.9466 3.79862 17.6793 3.70579C14.141 2.47105 10.2148 3.1726 7.32308 5.55636C5.52093 7.0648 4.24132 9.10404 3.66689 11.3828C3.60742 11.613 3.40022 11.7739 3.16258 11.7746H3.0455L1.19038 11.3289C1.05206 11.2963 0.933282 11.2084 0.861691 11.0857H0.852655C0.777588 10.963 0.756427 10.8148 0.794192 10.676C1.53088 7.75886 3.17926 5.15299 5.49946 3.23748C9.18886 0.200125 14.1983 -0.686313 18.7059 0.900594ZM11.8393 8.68129H27.3421C27.6199 8.68356 27.847 8.9009 27.8636 9.17612L27.8644 9.19456V11.1353C27.8668 11.4202 27.6427 11.6542 27.3602 11.6661L27.3421 11.6666H11.8393C11.5562 11.6617 11.3288 11.4345 11.3216 11.1536L11.3214 11.1353V9.21255C11.319 8.92948 11.5403 8.69635 11.8209 8.68192L11.8393 8.68129ZM22.6012 2.76017L22.628 2.75996L22.6548 2.7602C23.5151 2.77006 24.2078 3.46572 24.2172 4.32282L24.2172 4.34965C24.2172 4.35861 24.2171 4.36757 24.217 4.37645C24.2021 5.25416 23.4784 5.95355 22.6007 5.93865C21.723 5.92374 21.0236 5.2001 21.0385 4.32247C21.0531 3.4626 21.7478 2.77391 22.6012 2.76017Z" fill="#4FB58B"/>
</svg>
