<svg width="37" height="36" viewBox="0 0 37 36" fill="none" xmlns="http://www.w3.org/2000/svg">
<rect x="0.46405" width="36" height="36" rx="18" fill="#01ACEF"/>
<path d="M25.6926 11.9296C24.9426 12.2971 24.2076 12.4464 23.4426 12.6721C22.6018 11.7234 21.3553 11.6709 20.1576 12.1194C18.9598 12.5679 18.1753 13.6644 18.1926 14.9221V15.6721C15.7588 15.7344 13.5913 14.6259 12.1926 12.6721C12.1926 12.6721 9.05607 18.2469 15.1926 20.9221C13.7886 21.8574 12.3883 22.4881 10.6926 22.4221C13.1736 23.7744 15.8773 24.2394 18.2181 23.5599C20.9031 22.7799 23.1096 20.7676 23.9563 17.7534C24.2089 16.8366 24.3343 15.8895 24.3291 14.9386C24.3276 14.7519 25.4616 12.8596 25.6926 11.9289V11.9296Z" stroke="white" stroke-width="1.125" stroke-linecap="round" stroke-linejoin="round"/>
</svg>
