<svg width="74" height="68" viewBox="0 0 74 68" fill="none" xmlns="http://www.w3.org/2000/svg">
<path fill-rule="evenodd" clip-rule="evenodd" d="M68.5287 30.4259C66.7327 24.0259 65.8267 17.3253 64.9967 10.8253C64.8227 9.42534 65.7937 8.12553 67.1617 8.02553C68.5307 7.82553 69.7827 8.82612 69.9567 10.1261C70.7557 16.4261 71.6107 22.9255 73.3397 29.0255C73.7147 30.3255 72.9427 31.7261 71.6147 32.1261C70.2877 32.5261 68.9047 31.7259 68.5287 30.4259Z" fill="#34CD33"/>
<path fill-rule="evenodd" clip-rule="evenodd" d="M43.0634 41.8251C32.5524 31.5251 23.3944 19.9251 12.6014 9.8251C11.5934 8.9251 11.5394 7.3251 12.4804 6.3251C13.4224 5.3251 15.0064 5.22549 16.0144 6.22549C26.8384 16.3255 36.0264 27.9255 46.5684 38.2255C47.5524 39.2255 47.5664 40.8251 46.5984 41.8251C45.6314 42.7251 44.0474 42.8251 43.0634 41.8251Z" fill="#34CD33"/>
<path fill-rule="evenodd" clip-rule="evenodd" d="M10.6358 61.1255C16.6518 61.4255 22.6678 61.7249 28.6848 62.0249C30.0628 62.0249 31.1268 63.2255 31.0598 64.6255C30.9918 66.0255 29.8188 67.0249 28.4398 67.0249C22.4138 66.7249 16.3888 66.4255 10.3638 66.1255C8.98576 66.0255 7.92876 64.8253 8.00376 63.4253C8.07876 62.1253 9.25876 61.0255 10.6358 61.1255Z" fill="#34CD33"/>
</svg>
